<?xml version="1.0" standalone="no"?>
<!DOCTYPE svg PUBLIC "-//W3C//DTD SVG 20010904//EN"
 "http://www.w3.org/TR/2001/REC-SVG-20010904/DTD/svg10.dtd">
<svg version="1.0" xmlns="http://www.w3.org/2000/svg"
 width="100" height="100.000000pt" viewBox="0 0 2362.000000 2362.000000"
 preserveAspectRatio="xMidYMid meet">

<g transform="translate(0.000000,2362.000000) scale(0.100000,-0.100000)"
fill="#000000" stroke="none">
<path d="M11810 21004 c-158 -10 -391 -36 -515 -59 -170 -31 -299 -72 -441
-140 -188 -89 -260 -148 -398 -328 -104 -135 -174 -184 -398 -277 -141 -58
-189 -93 -247 -179 -190 -280 -273 -779 -243 -1454 28 -600 73 -772 271 -1021
39 -48 71 -91 71 -96 0 -9 107 -187 131 -218 17 -23 18 -15 18 260 0 294 11
486 37 648 21 134 37 189 103 362 108 282 138 445 149 788 7 212 8 216 35 263
94 159 389 267 654 237 240 -26 453 -122 695 -312 197 -155 279 -182 538 -182
136 0 216 6 360 27 295 43 437 57 565 57 254 0 453 -59 622 -184 58 -43 67
-54 124 -168 36 -72 79 -142 104 -169 149 -160 235 -336 270 -553 26 -161 18
-339 -39 -816 -48 -394 -50 -417 -38 -405 14 15 36 112 81 362 30 162 54 263
90 370 85 252 103 412 102 911 0 194 -3 357 -5 361 -3 4 -15 89 -26 187 -39
333 -85 531 -156 680 -41 86 -81 124 -189 176 -77 37 -83 42 -135 121 -73 112
-232 268 -350 345 -117 77 -268 152 -465 231 -207 82 -379 124 -650 156 -126
15 -585 27 -725 19z m-1332 -641 c-6 -110 -36 -211 -90 -301 -38 -61 -92 -117
-106 -108 -17 11 -62 135 -74 208 -12 66 -11 72 6 82 108 65 174 116 210 162
22 30 45 54 50 54 5 0 6 -44 4 -97z m146 -290 c-8 -34 -33 -83 -34 -66 0 15
30 93 36 93 3 0 1 -12 -2 -27z"/>
<path d="M12535 18989 c-11 -16 5 -99 25 -140 11 -20 35 -50 54 -67 39 -34 72
-42 261 -67 173 -23 384 -70 494 -109 53 -19 152 -54 221 -79 147 -52 200 -64
200 -45 0 24 -128 176 -195 231 -93 77 -166 113 -286 142 -121 29 -362 69
-535 89 -74 8 -140 22 -169 35 -54 24 -61 25 -70 10z"/>
<path d="M11005 18750 c-191 -12 -325 -73 -478 -219 -45 -43 -55 -57 -43 -63
18 -10 174 6 311 33 203 38 479 50 709 29 121 -10 172 2 228 57 37 37 84 135
73 154 -8 12 -47 11 -81 -2 -20 -7 -74 -7 -179 0 -225 15 -406 19 -540 11z"/>
<path d="M11004 17915 c-177 -27 -290 -75 -382 -160 -68 -63 -102 -123 -102
-180 l0 -38 30 41 c67 93 207 174 377 219 80 21 122 26 228 27 115 0 139 -3
208 -26 98 -33 194 -90 275 -163 34 -31 62 -54 62 -50 0 4 -17 39 -37 78 -44
83 -138 184 -202 216 -95 49 -281 64 -457 36z"/>
<path d="M12900 17912 c-36 -9 -86 -29 -111 -44 -83 -49 -189 -182 -214 -268
-6 -21 2 -17 46 26 177 168 387 232 625 189 206 -37 387 -125 462 -227 l37
-49 3 35 c6 71 -83 187 -192 251 -150 87 -485 132 -656 87z"/>
<path d="M11055 17777 c-62 -21 -97 -42 -137 -84 -130 -134 -98 -360 64 -453
49 -28 60 -30 152 -30 114 0 158 15 220 78 54 53 78 106 84 183 9 124 -52 230
-163 285 -65 31 -160 40 -220 21z"/>
<path d="M13045 17777 c-62 -21 -97 -42 -137 -84 -132 -136 -96 -368 71 -455
48 -25 64 -28 149 -28 109 0 154 16 216 76 77 75 106 198 72 302 -48 142 -230
235 -371 189z"/>
<path d="M12651 16399 c-23 -21 -36 -27 -41 -19 -5 8 -25 9 -66 5 -47 -6 -69
-3 -112 14 -72 29 -93 27 -141 -13 -23 -19 -58 -40 -78 -47 -34 -11 -122 -8
-183 7 -24 5 -23 4 9 -26 l34 -33 96 6 c53 3 146 11 206 18 126 13 105 14 295
-5 210 -21 204 -23 114 32 -56 33 -80 54 -82 70 -4 29 -10 28 -51 -9z"/>
<path d="M11710 16400 c0 -41 128 -75 173 -45 22 14 27 14 55 -2 23 -13 34
-15 42 -7 9 9 2 17 -25 34 -30 19 -44 21 -83 15 -69 -10 -102 -7 -128 10 -30
20 -34 19 -34 -5z"/>
<path d="M13150 15823 c-30 -14 -109 -45 -175 -69 -66 -24 -112 -43 -102 -43
10 -1 17 -9 17 -21 0 -31 -38 -125 -68 -166 -16 -22 -32 -45 -36 -53 -14 -22
149 67 236 129 169 121 255 217 216 241 -18 12 -26 10 -88 -18z"/>
<path d="M11116 15803 c-10 -25 140 -172 255 -249 98 -65 146 -88 73 -34 -38
27 -42 35 -59 112 -10 46 -19 87 -19 93 -1 5 -41 29 -90 52 -94 46 -149 55
-160 26z"/>
<path d="M12625 14470 c-27 -5 -112 -9 -188 -9 -174 -1 -178 -13 -24 -76 60
-24 148 -66 195 -93 l87 -49 3 -59 3 -59 -78 -52 c-86 -58 -144 -86 -216 -104
l-48 -12 43 -28 c24 -16 48 -29 53 -29 19 0 162 88 225 139 98 79 95 69 76
234 -9 78 -16 157 -16 175 0 30 -2 32 -32 31 -18 -1 -55 -5 -83 -9z"/>
<path d="M10509 13912 c5 -16 13 -37 19 -48 6 -10 13 -26 16 -34 4 -8 15 -28
26 -45 10 -16 26 -44 35 -62 9 -18 23 -37 31 -44 8 -6 14 -20 14 -30 0 -11 5
-28 12 -38 12 -19 0 -76 -46 -222 l-14 -46 34 -36 c19 -20 43 -42 52 -49 10
-7 31 -30 46 -51 16 -21 31 -35 33 -33 3 3 9 49 13 103 l7 98 2 -80 c3 -172
-35 -543 -110 -1075 l-40 -285 25 -180 c14 -99 33 -241 42 -315 19 -165 32
-740 16 -740 -17 0 -130 239 -153 325 -27 98 -29 236 -5 344 15 68 69 511 63
517 -2 2 -16 -9 -32 -24 -35 -31 -51 -33 -88 -9 -15 10 -27 15 -27 11 0 -4 -6
-1 -14 5 -11 9 -24 5 -59 -19 -81 -54 -191 -100 -323 -133 -111 -28 -129 -36
-132 -53 -3 -18 5 -23 44 -33 98 -25 189 -96 182 -142 -4 -28 -47 -42 -188
-60 -93 -12 -130 -29 -130 -59 0 -24 0 -24 80 0 121 37 176 21 187 -55 l5 -41
-55 -17 c-55 -18 -83 -39 -73 -55 3 -5 37 -12 75 -16 91 -9 110 -25 120 -97 4
-31 17 -69 29 -86 12 -17 22 -46 22 -65 0 -27 14 -50 71 -118 118 -139 322
-454 410 -632 34 -68 49 -90 71 -97 15 -6 28 -14 28 -18 0 -14 179 -93 211
-93 26 0 24 -21 -7 -82 l-26 -51 49 28 c60 36 209 137 247 168 21 18 25 26 15
31 -8 3 -5 4 6 1 11 -2 28 2 39 10 17 13 17 17 -15 85 l-32 71 51 52 c29 29
52 61 52 72 0 15 -13 7 -55 -35 -30 -30 -55 -50 -55 -46 0 5 25 35 55 67 l55
58 0 124 c0 116 2 129 29 188 28 62 28 67 20 164 -10 119 -27 464 -36 737 l-6
197 -60 66 c-33 36 -57 68 -55 71 3 2 31 -23 62 -56 47 -52 56 -58 56 -38 0
14 -21 44 -57 80 l-57 58 3 73 c2 57 -1 76 -13 86 -9 8 -16 29 -16 51 0 32 -5
39 -35 56 l-35 19 0 78 0 78 -55 25 -55 25 0 104 c0 82 -3 104 -15 109 -8 3
-15 12 -15 20 0 8 -13 19 -30 25 l-30 10 0 -48 c0 -254 35 -766 95 -1391 13
-140 31 -350 40 -465 28 -364 44 -509 69 -631 14 -65 24 -119 23 -121 -8 -7
-109 121 -117 146 -4 16 -13 80 -20 143 -6 62 -15 149 -21 193 -5 44 -16 166
-24 270 -9 105 -36 406 -61 670 -55 584 -60 678 -45 774 19 122 24 345 12 486
-20 220 -91 504 -161 645 -14 30 -32 82 -39 114 -19 85 -41 132 -109 227 -59
83 -136 169 -152 169 -5 0 -5 -13 -1 -28z"/>
<path d="M12286 13767 c-3 -33 -6 -81 -6 -108 0 -42 2 -47 20 -42 11 3 20 10
20 15 0 5 6 6 13 1 12 -7 55 -5 69 3 3 2 -7 44 -23 93 -27 81 -33 89 -58 93
-28 4 -29 3 -35 -55z"/>
<path d="M13487 13403 c-3 -15 -17 -75 -31 -133 -41 -169 -66 -457 -66 -751
l0 -146 85 -128 c137 -206 221 -303 526 -605 l288 -285 25 55 c47 105 97 244
92 257 -3 7 -12 13 -20 13 -9 0 -20 9 -26 19 -25 47 -1 143 60 241 22 36 40
72 40 81 0 9 -19 45 -41 80 -23 35 -87 143 -142 239 -124 217 -189 312 -318
465 -188 222 -262 319 -357 465 -52 80 -98 149 -102 153 -4 5 -10 -4 -13 -20z"/>
<path d="M11813 13078 c3 -9 9 -34 13 -54 4 -22 56 -117 125 -227 l118 -189
22 45 22 45 -138 184 c-76 101 -145 190 -153 198 -13 13 -14 13 -9 -2z"/>
<path d="M12550 12972 c0 -7 55 -190 67 -222 13 -35 18 24 9 105 -8 78 -11 86
-33 91 -12 4 -23 12 -23 20 0 8 -4 14 -10 14 -5 0 -10 -4 -10 -8z"/>
<path d="M15440 11931 c0 -92 -18 -186 -54 -287 -29 -79 -31 -88 -16 -79 6 3
10 -1 10 -10 0 -9 4 -14 9 -11 5 4 7 -3 4 -13 -4 -17 20 -62 55 -99 6 -7 12
-18 12 -23 0 -6 5 -7 10 -4 6 3 10 -1 10 -10 0 -12 6 -15 23 -9 12 3 24 8 26
10 2 2 -6 38 -17 81 -30 113 -42 204 -49 379 -6 160 -23 214 -23 75z"/>
<path d="M14650 11965 c0 -11 24 -55 31 -55 15 0 17 30 3 45 -15 14 -34 20
-34 10z"/>
<path d="M14444 11682 c-11 -7 -48 -141 -40 -149 3 -3 19 41 51 145 5 14 4 14
-11 4z"/>
<path d="M13218 11174 c-22 -11 -28 -22 -28 -49 0 -47 27 -57 43 -15 4 12 6
12 6 -2 1 -23 31 -12 31 12 0 10 9 20 20 23 12 3 20 14 20 26 0 17 -6 21 -32
21 -18 -1 -45 -8 -60 -16z"/>
<path d="M13025 10991 c-38 -36 -66 -63 -60 -59 5 5 15 8 23 8 7 0 20 7 28 15
9 8 23 15 33 15 26 0 53 34 49 63 -3 23 -7 21 -73 -42z"/>
<path d="M11625 9593 c21 -56 33 -136 24 -167 -9 -33 -7 -37 41 -85 28 -28 55
-51 60 -51 6 0 10 -8 10 -18 0 -34 -308 -241 -399 -269 -47 -14 -44 -16 -98
56 -10 14 -16 14 -56 -6 l-44 -21 -6 -99 c-11 -163 -8 -234 13 -308 18 -62 20
-100 20 -320 0 -353 -93 -1513 -141 -1763 -25 -131 -29 -165 -19 -177 10 -12
8 -26 -14 -74 -14 -33 -26 -77 -26 -100 0 -45 -40 -230 -291 -1333 -93 -411
-169 -749 -169 -751 0 -3 -21 -17 -47 -33 -71 -41 -130 -101 -147 -147 -29
-81 -96 -305 -105 -351 -14 -74 -4 -79 109 -65 97 11 173 7 196 -11 7 -7 33
-8 66 -4 l53 7 -40 13 c-38 13 -37 13 35 7 44 -3 106 -17 150 -33 138 -51 197
-66 220 -58 17 6 54 -7 159 -57 75 -36 175 -89 224 -118 l87 -51 0 -67 0 -66
-87 -67 c-49 -37 -140 -107 -203 -157 -196 -152 -357 -220 -575 -241 -141 -13
-250 2 -503 71 -126 34 -218 53 -295 60 -162 16 -177 15 -177 -8 0 -16 9 -21
58 -26 192 -20 257 -30 342 -52 52 -14 127 -34 165 -43 118 -30 55 -22 -112
14 -160 35 -252 50 -375 61 -65 5 -68 5 -68 -17 0 -12 10 -42 21 -66 17 -33
32 -49 63 -62 64 -29 575 -139 699 -152 237 -24 515 37 680 151 24 16 92 75
150 129 129 122 155 142 232 180 99 50 144 88 171 145 13 29 24 62 24 75 0 13
5 32 10 43 6 10 20 69 31 131 11 62 39 189 62 282 l42 169 -35 26 c-19 14 -44
35 -56 46 l-23 20 9 395 c38 1564 47 1838 71 1975 16 93 607 1866 629 1889 11
11 25 -22 51 -124 38 -145 50 -264 114 -1114 36 -472 70 -880 76 -907 10 -44
8 -53 -11 -85 -19 -30 -21 -39 -11 -61 14 -31 15 -25 -80 -443 -164 -721 -289
-1315 -289 -1374 0 -18 -8 -30 -24 -38 -14 -6 -27 -17 -30 -25 -3 -8 1 -58 10
-111 11 -65 14 -121 9 -172 -10 -112 -7 -137 25 -231 24 -68 28 -95 24 -136
-5 -42 -3 -54 13 -70 13 -13 22 -39 25 -72 3 -33 12 -59 24 -71 39 -38 305
-94 494 -105 63 -4 203 -20 310 -37 619 -94 947 -110 1197 -59 310 64 526 132
631 201 l52 35 0 68 c0 38 -3 67 -7 65 -170 -87 -430 -161 -708 -200 -118 -17
-548 -17 -685 0 -217 27 -669 109 -685 124 -7 7 -3 8 10 5 24 -7 270 -51 370
-66 408 -63 816 -71 1113 -21 205 35 434 108 549 176 46 27 51 37 28 60 -12
13 -27 8 -117 -35 -243 -116 -508 -171 -827 -171 -175 0 -250 6 -611 51 -243
30 -514 78 -704 125 -54 13 -102 24 -105 24 -11 1 61 30 148 60 287 97 645
265 796 371 102 73 219 180 259 238 l27 39 -42 83 c-23 46 -68 143 -101 214
-32 72 -63 134 -67 138 -4 4 -20 3 -36 -3 -21 -8 -26 -8 -22 2 41 109 41 96
13 553 -50 825 -61 1233 -76 2815 -12 1236 -17 1493 -32 1581 l-11 66 -64 -20
-65 -20 -156 27 c-87 14 -163 26 -169 26 -10 0 -13 -28 -13 -106 0 -58 -5
-114 -10 -125 -17 -30 -94 -24 -252 22 l-68 20 0 69 c0 39 4 70 9 70 5 0 11
18 13 40 3 39 3 40 -29 40 -32 0 -33 1 -33 45 0 25 -3 45 -7 45 -5 0 -66 7
-138 15 -137 16 -247 27 -430 45 -60 5 -197 10 -304 10 -180 0 -193 -1 -186
-17z m2062 -5245 c6 -7 22 -56 37 -108 14 -52 44 -130 66 -173 43 -85 48 -113
25 -156 -14 -27 -120 -131 -133 -131 -10 1 -92 123 -92 137 0 7 -6 16 -13 20
-20 12 -210 297 -201 301 5 1 63 29 129 62 121 59 164 71 182 48z m-250 -14
c-3 -3 -12 -4 -19 -1 -8 3 -5 6 6 6 11 1 17 -2 13 -5z m-1871 -515 c31 -28 77
-59 102 -70 64 -27 132 -95 132 -131 0 -41 -29 -106 -51 -113 -36 -12 -59 6
-106 87 -58 98 -120 156 -252 238 l-101 62 0 44 0 44 110 -55 c66 -33 132 -75
166 -106z m-1 -238 c8 -28 109 -123 145 -139 25 -10 30 -18 30 -47 0 -41 -25
-59 -45 -32 -6 8 -23 19 -37 22 -33 8 -78 57 -113 121 -22 43 -25 55 -16 73
15 26 28 27 36 2z m-140 -72 c21 -22 83 -75 138 -117 55 -43 106 -82 113 -88
32 -26 3 -119 -41 -130 -16 -4 -33 0 -48 12 -14 11 -40 31 -58 46 -19 14 -82
52 -141 83 -60 31 -108 59 -108 61 0 9 95 174 100 174 3 0 23 -18 45 -41z
m176 -469 c-78 -47 -288 -195 -431 -304 -82 -62 -222 -130 -325 -157 -97 -26
-330 -31 -468 -10 -114 17 -106 26 9 10 52 -7 141 -9 214 -6 237 10 425 81
646 243 217 160 389 273 413 273 17 1 1 -13 -58 -49z"/>
<path d="M13678 3693 c6 -2 18 -2 25 0 6 3 1 5 -13 5 -14 0 -19 -2 -12 -5z"/>
<path d="M10220 3476 c0 -21 24 -26 65 -13 30 9 34 12 19 18 -34 13 -84 10
-84 -5z"/>
</g>
</svg>
